<?xml version="1.0" encoding="UTF-8"?>
<!DOCTYPE svg PUBLIC "-//W3C//DTD SVG 1.1//EN" "http://www.w3.org/Graphics/SVG/1.1/DTD/svg11.dtd">
<!-- Creator: CorelDRAW 2020 (64-Bit) -->
<svg xmlns="http://www.w3.org/2000/svg" xml:space="preserve" width="314.82mm" height="117.3mm" version="1.1" style="shape-rendering:geometricPrecision; text-rendering:geometricPrecision; image-rendering:optimizeQuality; fill-rule:evenodd; clip-rule:evenodd"
viewBox="0 0 31482 11730"
 xmlns:xlink="http://www.w3.org/1999/xlink"
 xmlns:xodm="http://www.corel.com/coreldraw/odm/2003">
 <defs>
  <style type="text/css">
   <![CDATA[
    .fil0 {fill:#2B2A29}
   ]]>
  </style>
 </defs>
 <g id="Слой_x0020_1">
  <metadata id="CorelCorpID_0Corel-Layer"/>
  <path class="fil0" d="M13776.33 9428.14c-381.22,0 -840.09,-218.85 -840.09,-607.13l0 -1487.05c-484.76,204.61 -969.52,409.22 -1454.28,613.84l0 1035.58c0,1207.19 1376.62,1539 2294.37,1539 776.56,0 1468.4,-169.43 2047.29,-614.19l-1108.36 -981.29c-247.08,345.92 -536.53,501.24 -938.93,501.24zm-7986.14 -1164.47l0 -3865.28 376.93 0c459.17,0 747.01,137.06 986.88,479.73l514 -1411.79 -11.51 0c-1094.98,462.17 -2189.96,924.34 -3284.94,1386.51l0 2932.29c67.33,159.51 134.66,319.03 201.99,478.54l1216.65 0zm-1418.64 -3601.55c944.37,-398.59 1888.73,-797.19 2833.1,-1195.79l-4655.98 0c182.52,432.45 365.05,864.89 547.57,1297.34 222.81,-259.1 494.22,-365.28 898.37,-365.28l376.94 0 0 263.73zm-1443.38 -2526.78l2152.7 -1242.85 2152.7 1242.85 -0.38 0.66 875.27 505.34c-166.18,-393.67 -332.37,-787.34 -498.55,-1181.01l-2336.53 -1348.99 -192.51 -111.14 -2538.86 1465.8 -1.52 0 -672.28 388.15c101.13,239.62 202.27,479.24 303.41,718.87l756.93 -437.02 -0.38 -0.66zm-909.89 526.21c-101.14,-239.62 -202.28,-479.25 -303.42,-718.87l-1714.75 990.02 0 3574.48c258.71,-109.19 517.41,-218.38 776.12,-327.57l0 -2800.96 1242.05 -717.1zm-1242.05 5689.8l0 -1981.03c-258.71,109.19 -517.41,218.38 -776.12,327.57l0 2099.42 2540.38 1466.69 1.52 0 1267.39 731.72c297.59,-125.62 595.18,-251.24 892.77,-376.85l-1774 -1024.21 0.38 -0.66 -2152.32 -1242.65zm4116.76 2377.69c-297.59,125.61 -595.18,251.23 -892.77,376.85l1080.66 623.91 615.08 -355.12c-100.94,-239.15 -201.89,-478.3 -302.83,-717.45l-312.26 180.28 -187.88 -108.47zm653.48 -160.34c100.95,239.15 201.89,478.3 302.84,717.45l1770.42 -1022.15 1.52 0 2540.38 -1466.69 0 -292.21c-1290.35,544.66 -2580.7,1089.32 -3871.05,1633.99l-744.11 429.61zm3839.04 -4902.09l0 2684.74 -1872.05 1080.83c882.72,-372.6 1765.45,-745.2 2648.17,-1117.79l0 -809.15c-258.7,-612.88 -517.41,-1225.76 -776.12,-1838.63zm0 -451.81c258.71,612.87 517.42,1225.75 776.12,1838.62l0 -4120.72 -524.05 -302.57c-298.19,125.86 -596.37,251.72 -894.55,377.58l642.48 370.94 0 1836.15zm-833.3 -2317.26c298.18,-125.86 596.36,-251.72 894.54,-377.58l-1585.15 -915.19c166.35,394.05 332.69,788.11 499.04,1182.17l191.57 110.6zm3122.32 -1127.19l194.62 534.57c180.69,-258.13 397.52,-361.39 743.42,-361.39l283.94 0 0 2911.71 1068.66 0 0 -2780.64c-117.23,-277.73 -234.46,-555.45 -351.68,-833.18l-685.88 0c-417.69,176.31 -835.39,352.62 -1253.08,528.93zm2129.67 -528.93c98.79,234.04 197.58,468.07 296.36,702.11l148.55 0c345.9,0 562.73,103.26 743.42,361.39l387.19 -1063.5 -1575.52 0zm-2189.86 363.62c287.15,-121.21 574.3,-242.41 861.45,-363.62l-993.83 0 132.38 363.62zm4488.15 477.88l0 2772.32 1063.49 0 0 -1259.67 500.78 0 123.9 0 392.36 1254.51 186.16 0c265.5,-112.06 531,-224.12 796.49,-336.18l-399.28 -1099.03c283.94,-139.39 438.82,-376.87 438.82,-748.57l0 -490.45c0,-727.93 -583.37,-934.43 -1538.45,-934.43l-1946.31 0c237.48,227.15 382.04,521.42 382.04,841.5zm1063.49 810.53l0 -944.75 500.78 0c325.24,0 474.95,98.09 474.95,304.59l0 330.41c0,211.66 -149.71,309.75 -474.95,309.75l-500.78 0zm2945.76 -1155.08c283.76,672.3 567.51,1344.6 851.26,2016.91 15.27,-6.45 30.54,-12.89 45.81,-19.34 -1.22,-13.77 -1.85,-27.87 -1.85,-42.29l0 -1285.48c0,-283.95 242.64,-443.99 521.42,-443.99 278.78,0 521.43,160.04 521.43,443.99l0 888.39c354.5,-149.63 708.99,-299.26 1063.49,-448.88l0 -527.28c0,-882.8 -893.13,-1130.61 -1584.92,-1130.61 -505.72,0 -1121.82,132.44 -1416.64,548.58zm3786.28 968.8l0 2148.07 1063.49 0 0 -1208.05 500.78 0c555.8,0 985.72,-69.93 1248.04,-270.85 -221.67,-525.17 -443.34,-1050.34 -665.01,-1575.51 -129.03,54.46 -258.07,108.92 -387.1,163.39 189.96,35.02 279.02,129.8 279.02,289.07l0 382.03c0,211.67 -149.71,309.76 -474.95,309.76l-500.78 0 0 -686.79c-354.5,149.63 -708.99,299.25 -1063.49,448.88zm0 -190.71c354.5,-149.63 708.99,-299.26 1063.49,-448.89l0 -118.87 281.64 0c244.61,-103.25 489.23,-206.5 733.84,-309.75 -54.37,-128.82 -108.75,-257.65 -163.13,-386.48 -110.66,-7.59 -228.01,-11.05 -351.57,-11.05l-1946.31 0c237.48,227.15 382.04,521.42 382.04,841.5l0 433.54zm3732.56 -412.89l-586.55 1611.51c160.41,380.06 320.83,760.11 481.24,1140.16l167.26 0 222 -604.02c20.65,-61.96 82.6,-103.26 144.55,-103.26l944.75 0 258.13 707.28 1063.5 0 -1316.46 -3613.82 -1595.25 0 25.82 25.81c221.99,216.83 299.43,542.08 191.01,836.34zm846.67 598.87c103.25,278.78 165.2,469.79 268.45,748.57l-536.91 0c98.09,-278.78 165.21,-469.79 268.46,-748.57zm-1476.51 15.48l0 -542.07c0,-301.23 -99.9,-513.16 -284.69,-658.13 -169.62,71.6 -339.24,143.19 -508.85,214.78 212.51,503.48 425.02,1006.95 637.54,1510.43 102.01,-133.04 156,-305.14 156,-525.01zm-861.87 -1147.29c130.2,-54.96 260.39,-109.91 390.59,-164.87 -143.24,-65.64 -316.65,-108.64 -516.8,-134.13 42.07,99.67 84.14,199.33 126.21,299zm-3025.57 2210.79l0 -743.03c-354.5,149.63 -708.99,299.25 -1063.49,448.88l0 206.38c0,283.95 -242.65,443.99 -521.43,443.99 -199.65,0 -380.76,-82.08 -467.49,-232.96 -9.86,4.15 -19.71,8.31 -29.56,12.47 139.82,331.28 279.64,662.56 419.46,993.84 26.11,0.7 51.99,1.04 77.59,1.04 691.79,0 1584.92,-247.81 1584.92,-1130.61zm-1858.27 1117.63c-128.52,-304.52 -257.05,-609.05 -385.58,-913.57 -262.63,110.85 -525.26,221.7 -787.88,332.55 233.58,375.6 716.42,537.14 1173.46,581.02zm-1251.42 -738.83c265.84,-112.21 531.68,-224.41 797.52,-336.62 -265.34,-628.66 -530.67,-1257.32 -796,-1885.98 -42.96,111.84 -66.83,238.87 -66.83,382.78l0 1461.02c0,142.2 23.31,267.93 65.31,378.8zm-715.8 689.86l-62.06 -170.83c-134.91,56.95 -269.82,113.89 -404.72,170.83l466.78 0zm7667.91 -892.38l-326.68 897.54 705.52 0c-126.28,-299.18 -252.56,-598.36 -378.84,-897.54zm3617.55 561.97c0,247.81 211.66,387.2 454.31,387.2 242.64,0 454.31,-139.39 454.31,-387.2l0 -221.99c0,-247.81 -211.67,-397.52 -454.31,-397.52 -242.65,0 -454.31,149.71 -454.31,397.52l0 221.99zm-1716.8 3941.3c-208.97,-495.11 -417.95,-990.22 -626.93,-1485.33 -330.17,139.36 -660.35,278.72 -990.53,418.08l0 3058.06 2139.07 0c109.17,0 214.79,-1.43 316.69,-4.67 -135.42,-320.83 -270.83,-641.67 -406.25,-962.5l-595.22 0 0 -1023.64 163.17 0zm-465.05 -1553.65c218.59,517.88 437.18,1035.77 655.76,1553.65l556.81 0c388.28,0 423.57,197.67 423.57,388.28l0 296.5c0,211.79 -162.37,338.86 -437.69,338.86l-110.63 0c134.24,318.06 268.48,636.12 402.73,954.18 1004.35,-58.49 1599.88,-335.74 1599.88,-1250.68l0 -338.86c0,-374.16 -84.72,-656.55 -522.42,-868.34 437.7,-211.79 522.42,-614.18 522.42,-981.28l0 -289.45c0,-448.2 -159.47,-735.53 -452.54,-916.24 -534.04,225.41 -1068.08,450.81 -1602.12,676.21l162.68 0c275.32,0 437.69,112.96 437.69,310.63l0 289.44c0,225.91 -35.29,423.58 -423.57,423.58l-910.69 0 0 -713.9c-100.63,42.47 -201.25,84.95 -301.88,127.42zm-230.2 -93.56c-183.42,-434.57 -366.85,-869.14 -550.27,-1303.71l-894.35 0c324.74,310.62 522.41,713.02 522.41,1150.71l0 542.25c307.4,-129.75 614.81,-259.5 922.21,-389.25zm-359.56 -1303.71c173.81,411.8 347.62,823.59 521.44,1235.39 123.4,-52.08 246.8,-104.17 370.2,-156.25l0 -119.04 282.03 0c615.19,-259.65 1230.38,-519.3 1845.57,-778.95 -356.78,-139.99 -846.89,-181.15 -1442.82,-181.15l-1576.42 0zm-1635.7 2145.87l0 -2145.87 -1461.34 0 0 2762.67c487.11,-205.6 974.23,-411.2 1461.34,-616.8zm0 190.71c-487.11,205.6 -974.23,411.2 -1461.34,616.8l0 392.88c0,388.28 -331.8,607.12 -713.02,607.12 -311.51,0 -590.01,-146.12 -681.46,-411.41 -31.57,13.33 -63.13,26.65 -94.7,39.97 200.7,475.53 401.41,951.05 602.11,1426.57 58.8,2.58 116.93,3.82 174.05,3.82 945.99,0 2174.36,-338.87 2174.36,-1546.06l0 -1129.69zm-2887.38 1009.68l0 -3346.26 -1574.95 0c481.16,1140.02 962.32,2280.05 1443.49,3420.07 43.9,-18.53 87.8,-37.06 131.71,-55.59 -0.17,-6.03 -0.25,-12.11 -0.25,-18.22zm-293.34 142.13c-490.78,-1162.79 -981.55,-2325.59 -1472.33,-3488.39l-211.03 0c324.74,310.62 522.41,713.02 522.41,1150.71l0 2315.56c0,178.54 26.72,338.1 75.31,480.36 361.88,-152.74 723.76,-305.49 1085.64,-458.24zm68.33 161.88c-361.93,152.77 -723.86,305.53 -1085.78,458.3 293.93,580.04 992.55,823.29 1653.29,886.29 -189.17,-448.19 -378.34,-896.39 -567.51,-1344.59zm-4702.6 303.11l0 -3953.38 -1093.55 0c-215.8,91.09 -431.6,182.17 -647.4,273.26 182.05,259.3 286.66,559.04 286.66,877.45l0 1906.93c265.1,628.03 530.2,1256.06 795.3,1884.09l1850.1 0c495.76,-209.26 991.51,-418.51 1487.27,-627.77l-313.41 -854.75c-247.09,352.98 -536.53,494.17 -1016.59,494.17l-1348.38 0zm2738.93 525.73c-365.33,154.21 -730.66,308.41 -1095.99,462.62l1265.62 0 -169.63 -462.62zm-3588.63 462.62c-201.53,-477.43 -403.06,-954.85 -604.59,-1432.28l0 1432.28 604.59 0zm-3724.94 -3953.39c151.76,0 306.24,32.61 454.49,98.43 464.91,-196.23 929.81,-392.46 1394.72,-588.69 -16.24,-38.47 -32.47,-76.93 -48.71,-115.39 -506.62,-312.64 -1054.58,-453.29 -1800.5,-453.29 -917.75,0 -2294.37,338.86 -2294.37,1546.06l0 771.57c484.76,-204.61 969.52,-409.22 1454.28,-613.84l0 -37.72c0,-388.28 458.87,-607.13 840.09,-607.13zm649.22 206.95c117.12,79.55 227.17,182.24 325.01,308.41l945.13 -839.43c-0.61,-1.44 -1.22,-2.88 -1.82,-4.32 -422.78,178.45 -845.55,356.89 -1268.32,535.34zm1948.72 -1195.29c43.57,41.68 84.85,85 123.68,129.85 102.54,-43.29 205.09,-86.57 307.63,-129.85l-431.31 0z"/>
 </g>
</svg>
